<svg width="240" height="34" xmlns="http://www.w3.org/2000/svg" xmlns:xlink="http://www.w3.org/1999/xlink"><defs><path id="a" d="M0 .097h15.689v29.91H0z"/><path id="c" d="M.258.18h4.696v8.391H.258z"/><path id="e" d="M.004.18h4.843v6.015H.004z"/><path id="g" d="M0 33.938h239.822V0H0z"/></defs><g transform="translate(0 .005)" fill="none" fill-rule="evenodd"><path d="M45.61 2.543l13.347 13.346-13.348 13.345 1.607 1.607L60.75 17.314c.365-.422.55-.89.547-1.427a2.15 2.15 0 0 0-.55-1.429L47.223.932l-1.611 1.61z" fill="#231815"/><path d="M39.894 26.745l-6.65-6.65a3.67 3.67 0 0 0-5.19 0l-6.652 6.652 2.042 2.042 6.36-6.36a1.203 1.203 0 0 1 1.7 0l6.352 6.354 2.038-2.038z" fill="#0079F1"/><path d="M39.894 5.027l-6.65 6.65a3.67 3.67 0 0 1-5.19 0l-6.652-6.653 2.042-2.041 6.36 6.36c.469.468 1.23.468 1.7 0l6.352-6.354 2.038 2.038z" fill="#FF6F00"/><g transform="translate(0 .835)"><mask id="b" fill="#fff"><use xlink:href="#a"/></mask><path d="M15.687 1.708L2.34 15.055 15.689 28.4l-1.608 1.607L.548 16.48c-.365-.423-.55-.891-.548-1.428 0-.535.207-1.047.55-1.429L14.076.097l1.61 1.61z" fill="#231815" mask="url(#b)"/></g><path d="M132.372 23.245h4.95c.088 0 .159.07.159.158v.866c0 .087-.07.158-.158.158h-3.7a.159.159 0 0 0-.16.159v2.037a.16.16 0 0 0 .16.158h3.111c.088 0 .159.07.159.158v.793a.159.159 0 0 1-.159.158h-3.112a.158.158 0 0 0-.158.158v2.105c0 .088.071.158.158.158h3.7c.088 0 .159.071.159.159v.865c0 .088-.07.159-.158.159h-4.951a.158.158 0 0 1-.158-.159v-7.932c0-.088.07-.158.158-.158m6.337 2.375h.865a.16.16 0 0 1 .159.16v.463h.022c.389-.464.898-.696 1.528-.696.487 0 .932.172 1.335.515.4.347.61.856.629 1.528v3.745a.159.159 0 0 1-.16.159h-.865a.158.158 0 0 1-.158-.159v-3.338c0-.41-.11-.724-.328-.939-.215-.219-.492-.328-.832-.328-.34 0-.619.11-.837.328-.223.215-.334.528-.334.94v3.337a.159.159 0 0 1-.159.159h-.865a.158.158 0 0 1-.159-.159V25.78c0-.087.071-.158.159-.158M145 23.833h.866c.088 0 .159.07.159.159v1.47c0 .088.07.159.158.159h.543c.087 0 .158.07.158.158v.583c0 .088-.07.159-.158.159h-.543a.158.158 0 0 0-.158.158v3.265c-.008.298.131.443.418.435h.283c.087 0 .158.071.158.159v.797c0 .088-.07.159-.158.159h-.458c-.415 0-.755-.128-1.019-.385-.271-.245-.407-.6-.407-1.063v-3.367a.158.158 0 0 0-.158-.158h-.272a.158.158 0 0 1-.158-.159v-.583c0-.087.07-.158.158-.158h.272c.087 0 .158-.07.158-.158v-1.471c0-.088.07-.159.158-.159m6.196 4.198a.158.158 0 0 0 .159-.17c-.038-.373-.156-.661-.357-.865-.227-.223-.517-.334-.871-.334-.355 0-.646.111-.872.334-.194.203-.311.49-.354.863a.158.158 0 0 0 .159.172h2.136zm-2.143.973a.159.159 0 0 0-.16.166c.03.39.163.694.402.91.252.248.584.373.996.373.436 0 .83-.158 1.181-.474a.16.16 0 0 1 .21-.006l.617.527c.07.06.076.17.01.235-.573.558-1.239.834-1.996.827-.31 0-.61-.046-.905-.136a2.198 2.198 0 0 1-.43-.198 2.084 2.084 0 0 1-.413-.266c-.25-.219-.451-.524-.606-.917-.17-.377-.254-.867-.254-1.47 0-.581.073-1.064.22-1.449.148-.392.336-.702.566-.928a2.11 2.11 0 0 1 .787-.498c.286-.101.57-.153.849-.153.67.008 1.239.229 1.703.663.471.44.71 1.048.718 1.821v.815c0 .087-.07.158-.158.158h-3.337zm4.892-3.384h.866a.16.16 0 0 1 .159.16v.463h.022c.389-.464.898-.696 1.528-.696.414.007.781.124 1.102.351.074.053.083.16.025.23l-.66.784a.161.161 0 0 1-.213.026 1.18 1.18 0 0 0-.656-.208c-.302 0-.56.098-.775.294-.241.192-.366.504-.373.934v3.377a.159.159 0 0 1-.159.159h-.866a.158.158 0 0 1-.158-.159V25.78c0-.087.07-.158.158-.158m6.694 4.758c.279 0 .5-.054.662-.159a.903.903 0 0 0 .345-.419c.075-.177.126-.373.153-.588a18.615 18.615 0 0 0 0-1.336 2.032 2.032 0 0 0-.153-.588.833.833 0 0 0-.345-.419c-.163-.094-.383-.141-.662-.141-.264 0-.474.055-.628.164a.963.963 0 0 0-.357.43c-.071.177-.118.37-.141.577-.023.219-.034.44-.034.662 0 .208.011.415.034.622.023.22.07.417.141.595.076.177.195.32.357.43.154.113.364.17.628.17m-2.184-4.76h.866a.16.16 0 0 1 .158.16v.452c.392-.438.898-.666 1.516-.685.721.02 1.247.276 1.579.77.162.185.273.428.334.73.056.298.085.803.085 1.516 0 .694-.029 1.192-.085 1.494-.06.302-.172.549-.334.741a1.768 1.768 0 0 1-.64.543c-.26.14-.573.213-.939.22a1.64 1.64 0 0 1-.809-.197 2.476 2.476 0 0 1-.453-.277.157.157 0 0 0-.254.124v2.5c0 .088-.07.16-.158.16h-.866a.158.158 0 0 1-.158-.16V25.78c0-.087.07-.158.158-.158m6.015-.002h.865c.088 0 .158.072.158.16v.463h.023c.388-.464.898-.696 1.528-.696.413.007.78.124 1.101.351.074.053.084.16.025.23l-.659.784a.161.161 0 0 1-.213.026 1.18 1.18 0 0 0-.656-.208c-.302 0-.56.098-.775.294-.242.192-.366.504-.374.934v3.377c0 .088-.07.159-.158.159h-.866a.158.158 0 0 1-.158-.159V25.78c0-.087.07-.158.158-.158m4.544-.002h.865a.16.16 0 0 1 .159.16v5.555a.159.159 0 0 1-.159.159h-.865a.158.158 0 0 1-.159-.159V25.78c0-.087.071-.158.159-.158m0-2.376h.865c.088 0 .159.07.159.158v.866a.159.159 0 0 1-.159.158h-.865a.158.158 0 0 1-.159-.158v-.866c0-.087.071-.158.159-.158m4.617 7.207c.339 0 .616-.066.831-.198a.618.618 0 0 0 .323-.555c0-.211-.064-.358-.192-.441-.133-.087-.308-.134-.527-.142l-1.04-.09c-.495-.045-.897-.211-1.206-.498-.317-.279-.479-.67-.486-1.171.007-.604.22-1.056.639-1.358.407-.302.924-.453 1.55-.453.272 0 .515.017.73.051.215.038.417.09.605.159.31.126.593.29.848.49a.16.16 0 0 1 .02.227l-.533.624a.156.156 0 0 1-.207.027 3.625 3.625 0 0 0-.603-.322 2.418 2.418 0 0 0-.86-.14c-.37 0-.628.065-.775.197a.638.638 0 0 0-.232.51c-.007.131.05.246.175.344.113.11.313.18.6.21l.973.073c.611.046 1.053.23 1.324.555.253.317.38.718.38 1.205-.008.57-.24 1.009-.697 1.318-.452.317-1.031.48-1.737.487-.904 0-1.722-.313-2.455-.938a.161.161 0 0 1-.007-.235l.593-.581a.158.158 0 0 1 .22 0c.462.43 1.044.645 1.745.645m6.734-2.422a.158.158 0 0 0 .158-.17c-.037-.373-.156-.661-.356-.865-.227-.223-.517-.334-.872-.334-.354 0-.645.111-.871.334-.194.203-.312.49-.354.863a.158.158 0 0 0 .158.172h2.137zm-2.144.973a.159.159 0 0 0-.159.166c.029.39.163.694.401.91.253.248.585.373.996.373.436 0 .83-.158 1.182-.474a.16.16 0 0 1 .21-.006l.616.527c.07.06.076.17.01.235-.573.558-1.238.834-1.995.827-.31 0-.611-.046-.905-.136a2.198 2.198 0 0 1-.43-.198 2.084 2.084 0 0 1-.413-.266c-.25-.219-.451-.524-.606-.917-.17-.377-.255-.867-.255-1.47 0-.581.074-1.064.221-1.449.147-.392.336-.702.566-.928a2.11 2.11 0 0 1 .787-.498c.286-.101.57-.153.848-.153.671.008 1.24.229 1.703.663.472.44.711 1.048.719 1.821v.815a.159.159 0 0 1-.159.158h-3.337zm7.162-5.759h.934c.088 0 .159.07.159.158v7.932a.159.159 0 0 1-.159.159h-.934a.158.158 0 0 1-.158-.159v-7.932c0-.088.07-.158.158-.158m2.88 2.375h.866a.16.16 0 0 1 .159.16v.463h.022c.388-.464.898-.696 1.528-.696.486 0 .931.172 1.335.515.4.347.61.856.628 1.528v3.745a.159.159 0 0 1-.158.159h-.866a.158.158 0 0 1-.158-.159v-3.338c0-.41-.11-.724-.329-.939-.215-.219-.492-.328-.831-.328-.34 0-.619.11-.838.328-.222.215-.333.528-.333.94v3.337a.159.159 0 0 1-.159.159h-.866a.158.158 0 0 1-.158-.159V25.78c0-.087.071-.158.158-.158m6.292-1.789h.866c.087 0 .158.07.158.159v1.47c0 .088.071.159.158.159h.544c.087 0 .158.07.158.158v.583c0 .088-.07.159-.158.159h-.544a.158.158 0 0 0-.158.158v3.265c-.008.298.132.443.419.435h.283c.087 0 .158.071.158.159v.797c0 .088-.07.159-.158.159h-.459c-.414 0-.754-.128-1.018-.385-.272-.245-.407-.6-.407-1.063v-3.367a.158.158 0 0 0-.159-.158h-.271a.158.158 0 0 1-.159-.159v-.583c0-.087.071-.158.159-.158h.271c.088 0 .159-.07.159-.158v-1.471c0-.088.07-.159.158-.159m6.196 4.198a.158.158 0 0 0 .158-.17c-.037-.373-.156-.661-.356-.865-.227-.223-.517-.334-.872-.334-.354 0-.645.111-.871.334-.194.203-.312.49-.354.863a.158.158 0 0 0 .158.172h2.137zm-2.144.973a.158.158 0 0 0-.159.166c.03.39.163.694.401.91.253.248.585.373.996.373.436 0 .83-.158 1.182-.474a.16.16 0 0 1 .21-.006l.616.527a.16.16 0 0 1 .01.235c-.573.558-1.238.834-1.995.827-.31 0-.611-.046-.906-.136a2.204 2.204 0 0 1-.43-.198 2.084 2.084 0 0 1-.412-.266c-.25-.219-.451-.524-.606-.917-.17-.377-.255-.867-.255-1.47 0-.581.074-1.064.221-1.449.147-.392.336-.702.566-.928a2.11 2.11 0 0 1 .787-.498c.286-.101.57-.153.848-.153.671.008 1.24.229 1.703.663.472.44.711 1.048.719 1.821v.815a.159.159 0 0 1-.159.158h-3.337zm4.893-5.759h.866c.088 0 .158.07.158.158v6.575c0 .268.147.401.442.401h.249c.087 0 .158.071.158.159v.797c0 .088-.07.159-.158.159h-.368c-.43 0-.785-.107-1.064-.323-.294-.218-.441-.586-.441-1.103v-6.665c0-.088.07-.158.158-.158m2.988 0h.865c.088 0 .159.07.159.158v6.575c0 .268.147.401.441.401h.25c.087 0 .158.071.158.159v.797a.159.159 0 0 1-.159.159h-.368c-.43 0-.785-.107-1.064-.323-.294-.218-.44-.586-.44-1.103v-6.665c0-.088.07-.158.158-.158m3.021 2.375h.866a.16.16 0 0 1 .158.16v5.555c0 .088-.07.159-.158.159h-.866a.158.158 0 0 1-.158-.159V25.78c0-.087.07-.158.158-.158m0-2.376h.866c.087 0 .158.07.158.158v.866c0 .087-.07.158-.158.158h-.866a.158.158 0 0 1-.158-.158v-.866c0-.087.07-.158.158-.158" fill="#000"/><g transform="translate(211.626 25.367)"><mask id="d" fill="#fff"><use xlink:href="#c"/></mask><path d="M1.44 3.196c0 .45.015.758.045.928a.873.873 0 0 0 .187.442c.08.105.2.201.362.288a1 1 0 0 0 .577.159c.23 0 .423-.053.578-.159a1.13 1.13 0 0 0 .35-.288.952.952 0 0 0 .198-.442c.023-.17.034-.479.034-.928 0-.456-.011-.773-.034-.95a.877.877 0 0 0-.198-.43 1.402 1.402 0 0 0-.35-.311 1.253 1.253 0 0 0-1.155 0 1.342 1.342 0 0 0-.362.31.807.807 0 0 0-.187.43c-.03.178-.045.495-.045.951zM3.771 5.51c-.388.442-.894.67-1.516.685-.381-.008-.698-.089-.95-.243a2.083 2.083 0 0 1-.606-.475 1.788 1.788 0 0 1-.334-.708c-.071-.275-.107-.8-.107-1.573 0-.788.036-1.322.107-1.6.068-.276.18-.508.334-.697.14-.185.341-.35.605-.498.253-.14.57-.213.95-.22.586 0 1.091.232 1.517.695V.413c0-.088.071-.159.159-.159h.866c.087 0 .158.071.158.159v5.573c-.015.882-.27 1.531-.764 1.946-.498.426-1.094.64-1.788.64-.741-.015-1.381-.3-1.92-.858A.16.16 0 0 1 .5 7.48l.68-.542a.157.157 0 0 1 .2.004c.126.103.267.194.422.272.2.109.408.167.623.175.403 0 .728-.111.973-.334.241-.226.365-.54.373-.939V5.51z" fill="#000" mask="url(#d)"/></g><path d="M221.31 28.031a.158.158 0 0 0 .158-.17c-.037-.373-.156-.661-.357-.865-.226-.223-.517-.334-.87-.334-.355 0-.646.111-.872.334-.194.203-.312.49-.354.863a.158.158 0 0 0 .158.172h2.136zm-2.144.973a.159.159 0 0 0-.159.166c.029.39.163.694.401.91.253.248.585.373.996.373.436 0 .83-.158 1.182-.474a.16.16 0 0 1 .21-.006l.616.527c.07.06.076.17.01.235-.573.558-1.238.834-1.995.827-.31 0-.611-.046-.905-.136a2.198 2.198 0 0 1-.43-.198 2.084 2.084 0 0 1-.413-.266c-.25-.219-.451-.524-.606-.917-.17-.377-.255-.867-.255-1.47 0-.581.074-1.064.221-1.449.147-.392.336-.702.566-.928a2.11 2.11 0 0 1 .787-.498c.286-.101.57-.153.848-.153.671.008 1.24.229 1.703.663.472.44.711 1.048.719 1.821v.815a.159.159 0 0 1-.159.158h-3.337zm4.894-3.384h.865c.088 0 .158.072.158.16v.463h.023c.388-.464.898-.696 1.527-.696.487 0 .932.172 1.336.515.4.347.609.856.628 1.528v3.745a.159.159 0 0 1-.159.159h-.865a.158.158 0 0 1-.159-.159v-3.338c0-.41-.109-.724-.328-.939-.215-.219-.492-.328-.831-.328-.34 0-.62.11-.838.328-.222.215-.334.528-.334.94v3.337c0 .088-.07.159-.158.159h-.866a.158.158 0 0 1-.158-.159V25.78c0-.087.07-.158.158-.158m10.267 4.813a.16.16 0 0 1 .011.228c-.232.24-.497.44-.795.599a2.537 2.537 0 0 1-1.205.3 2.647 2.647 0 0 1-1.828-.707c-.543-.472-.822-1.236-.837-2.292.015-1.067.294-1.84.837-2.32a2.606 2.606 0 0 1 1.828-.696c.456.008.858.102 1.205.283.3.16.568.368.8.621a.16.16 0 0 1-.013.226l-.631.561a.16.16 0 0 1-.227-.018 1.47 1.47 0 0 0-1.089-.49c-1.003-.015-1.512.596-1.527 1.833.015 1.23.524 1.835 1.527 1.816a1.433 1.433 0 0 0 1.09-.483.16.16 0 0 1 .226-.019l.628.558z" fill="#000"/><g transform="translate(234.975 25.367)"><mask id="f" fill="#fff"><use xlink:href="#e"/></mask><path d="M3.495 2.665a.158.158 0 0 0 .158-.17c-.037-.374-.156-.662-.356-.866-.227-.223-.517-.334-.872-.334-.354 0-.645.111-.871.334-.194.204-.312.491-.354.863a.158.158 0 0 0 .158.173h2.137zm-2.144.973a.159.159 0 0 0-.159.166c.03.39.163.693.401.909.253.249.585.373.996.373.436 0 .83-.158 1.182-.473a.16.16 0 0 1 .21-.007l.616.527a.16.16 0 0 1 .01.235c-.573.558-1.238.834-1.995.827a3.04 3.04 0 0 1-.905-.136 2.198 2.198 0 0 1-.43-.198 2.084 2.084 0 0 1-.413-.266c-.25-.218-.451-.524-.606-.916-.17-.377-.254-.868-.254-1.471 0-.581.073-1.064.22-1.449.148-.392.336-.701.566-.928a2.11 2.11 0 0 1 .787-.498c.286-.101.57-.152.848-.152.671.007 1.24.228 1.703.662.472.441.711 1.048.719 1.822v.814a.159.159 0 0 1-.159.159H1.351z" fill="#000" mask="url(#f)"/></g><mask id="h" fill="#fff"><use xlink:href="#g"/></mask><path d="M128.75 9.935h4.247V3.088h-4.247v6.847zm-7.377 0h4.247V3.088h-4.247v6.847zM136.127.94h-17.884v16.637c0 1.185.96 2.146 2.146 2.146h14.122c1.185 0 2.146-.96 2.146-2.146h-15.284v-5.496h12.25a2.504 2.504 0 0 0 2.504-2.505V.941zm13.379 8.995h4.248V3.088h-4.248v6.847zm-7.377 0h4.248V3.088h-4.248v6.847zM156.883.94H139v16.637c0 1.185.96 2.146 2.146 2.146h14.121c1.186 0 2.146-.96 2.146-2.146H142.13v-5.496h12.25a2.504 2.504 0 0 0 2.504-2.505V.941zM100.7 5.622h4.247V3.088H100.7v2.534zm0 4.326h4.247v-2.18H100.7v2.18zm7.377 0v-2.18h1.58a2.146 2.146 0 0 0 2.146-2.146h-3.726V3.088h4.248v6.86h-4.248zm5.678 9.776c1.186 0 2.147-.96 2.147-2.146h-7.825v-1.84h5.231c1.186 0 2.146-.96 2.146-2.146h-7.377v-1.497h4.695c2.784 0 2.682-2.677 2.682-2.677V.94H97.57v11.15l7.377.004v1.497H97.57v2.146h7.377v1.84h-7.824v2.146h16.632zm-28.497-5.249h2.092V6.937h-2.092v7.538zM82.8 16.757h3.612c1.89 0 3.422-1.766 3.422-3.656V4.655H82.8v12.102z" fill="#000" mask="url(#h)"/><path d="M82.722.941v2.283h8.555v16.98a2.757 2.757 0 0 0 2.757-2.758V2.936A2.272 2.272 0 0 0 95.228.94H82.722zm-3.631 7.554v5.98h-1.528V3.223h1.528V6.48c0 .798-.344 1.511-.886 2.015h.886zm2.542-2.747L81.635.94h-6.616v19.262a2.757 2.757 0 0 0 2.756-2.757v-.69l1.13-.002A2.755 2.755 0 0 0 81.636 14l-.001-3.545a2.746 2.746 0 0 0-1.354-2.356 2.746 2.746 0 0 0 1.353-2.351zm103.712 4.055V7.502c0-1.185-.893-2.146-2.079-2.146v9.137h2.079v-4.69zm13.31 0V7.502c0-1.185-.893-2.146-2.078-2.146v9.137h2.078v-4.69z" fill="#000" mask="url(#h)"/><path d="M195.944 17.587h-1.31V3.393A2.443 2.443 0 0 0 192.19.95v16.637h-2.451V5.286l-.001-.001V3.393A2.443 2.443 0 0 0 187.294.95v16.637h-5.764v2.147h16.715a2.147 2.147 0 0 0 2.146-2.147h-4.447zm-33.7-8.403c.131-.068.263-.15.393-.252l6.546-5.762 6.545 5.762c1.492 1.157 3.463-.06 3.463-.06L169.183 0l-7.29 6.461-2.719 2.41c0 .001 1.707 1.013 3.07.313" fill="#000" mask="url(#h)"/><path d="M171.087 17.587v-3.933h2.926a2.146 2.146 0 0 0 2.146-2.147h-5.072V6.634h-2.444v10.953h-2.906v-6.704h-2.444v6.704h-3.541v2.147h16.715a2.147 2.147 0 0 0 2.146-2.147h-7.526zm39.739-13.949h-8.099V.937h2.079v.623h6.02zm-8.099 2.703h8.099V4.263h-8.099zm8.721 4.549h2.078V4.262h-2.078z" fill="#000" mask="url(#h)"/><path fill="#000" mask="url(#h)" d="M205.148 10.89l1.613-2.642 1.64 2.643h2.445l-4.1-6.608-4.033 6.608zm14.366-8.861v-.47h-8.066v2.08h5.622v5.105h-2.921v2.146h2.861a2.504 2.504 0 0 0 2.504-2.504V2.03zm-3.062 15.541H205.18v-.951h11.272V14.54H205.18v-.882h11.272V11.51h-13.716v8.205h13.716zm.618 2.146h2.444v-8.205h-2.444zm8.005-8.034h3.164v-1.257h-3.164v1.257zm0 3.376V13.76h3.164v1.297h-3.164zm-2.445-.824v5.509a2.445 2.445 0 0 0 2.445-2.446v-.16h3.164v2.606a2.445 2.445 0 0 0 2.445-2.446v-8.95h-8.054v5.887zm13.89-.474h.616c1.186 0 2.147-.96 2.147-2.146h-4.913V8.341h-2.445v8.92a2.502 2.502 0 0 0 2.42 2.5v.004h2.791a2.146 2.146 0 0 0 2.147-2.147h-4.913v-3.857h2.15zm-2.15-8.116V.937h-2.445V7.79h5.579a2.147 2.147 0 0 0 2.146-2.147h-5.28z"/><path d="M239.65 2.12h-4.657v2.148h2.51a2.147 2.147 0 0 0 2.147-2.147m-12.283 1.348l.39 1.057h-2.35l1.301-3.588h-2.203l-2.503 6.772h2.225l.427-1.104h3.873l.408 1.106h2.217l-1.569-4.243zM81.87 28.131l-1.298-2.953-1.374 2.953h2.673zm-4.136 3.232H75.01l4.204-8.118h3.014l4.01 8.118h-3.025l-.61-1.464h-4.214l-.655 1.464zm8.902 0h2.614v-8.118h-2.614zm4.194 0h2.612v-5.651H90.83v5.65zm0-6.452h2.612v-1.656H90.83v1.656zm9.316 3.647c0-.5-.117-.894-.353-1.181-.234-.288-.554-.432-.956-.432-.433 0-.763.138-.993.416-.229.276-.343.679-.343 1.207 0 .5.115.887.346 1.165.23.276.553.415.967.415.408 0 .731-.144.97-.43.242-.286.362-.672.362-1.16zm-5.237-5.314h2.614v3.271c.311-.32.659-.56 1.044-.72.384-.16.806-.24 1.263-.24.89 0 1.606.285 2.147.853.54.569.81 1.323.81 2.262 0 .856-.267 1.541-.8 2.057s-1.24.773-2.123.773c-.488 0-.93-.09-1.325-.266a2.767 2.767 0 0 1-1.016-.785c0 .187-.008.358-.022.512a2.227 2.227 0 0 1-.072.402h-2.614c.03-.107.053-.24.068-.399.018-.16.026-.342.026-.547v-7.173zm13.603 5.67c-.846 0-1.422.055-1.729.165-.307.11-.46.302-.46.577 0 .186.074.332.223.437.149.104.359.156.631.156.444 0 .779-.104 1-.31.224-.207.335-.52.335-.937v-.088zm.054 1.614a2.223 2.223 0 0 1-.968.727c-.395.157-.876.236-1.441.236-.804 0-1.421-.143-1.854-.428-.433-.287-.65-.692-.65-1.217 0-.714.374-1.23 1.12-1.548.747-.317 1.996-.483 3.75-.498 0-.01.001-.031.005-.062a.66.66 0 0 0 .006-.07c0-.288-.088-.504-.262-.647-.173-.143-.435-.215-.783-.215-.315 0-.558.053-.726.158a.637.637 0 0 0-.301.468h-2.413c.012-.627.309-1.093.892-1.4.584-.306 1.473-.458 2.67-.458 1.147 0 2.003.178 2.563.536.562.357.843.901.843 1.63v2.882c0 .18.008.323.025.433.016.11.044.213.085.308h-2.423a2.387 2.387 0 0 1-.138-.835zm9.151-1.97c0-.5-.116-.894-.351-1.181-.235-.288-.554-.432-.957-.432-.433 0-.763.138-.993.416-.23.276-.344.679-.344 1.207 0 .5.116.887.347 1.165.23.276.554.415.968.415.407 0 .73-.144.97-.43.24-.286.36-.672.36-1.16zm-5.236-5.314h2.613v3.271c.312-.32.66-.56 1.044-.72.385-.16.807-.24 1.265-.24.889 0 1.605.285 2.145.853.54.569.811 1.323.811 2.262 0 .856-.267 1.541-.8 2.057s-1.24.773-2.124.773c-.487 0-.928-.09-1.324-.266a2.767 2.767 0 0 1-1.017-.785c0 .187-.006.358-.022.512a2.183 2.183 0 0 1-.07.402h-2.615c.03-.107.052-.24.068-.399.018-.16.026-.342.026-.547v-7.173zm13.603 5.67c-.845 0-1.421.055-1.729.165-.307.11-.46.302-.46.577 0 .186.074.332.223.437.15.104.359.156.631.156.445 0 .78-.104 1.001-.31.222-.207.334-.52.334-.937v-.088zm.055 1.614a2.23 2.23 0 0 1-.969.727c-.396.157-.877.236-1.441.236-.803 0-1.42-.143-1.853-.428-.434-.287-.65-.692-.65-1.217 0-.714.373-1.23 1.12-1.548.746-.317 1.995-.483 3.749-.498 0-.01.001-.031.005-.062a.68.68 0 0 0 .005-.07c0-.288-.087-.504-.26-.647-.175-.143-.435-.215-.784-.215-.316 0-.557.053-.725.158a.637.637 0 0 0-.303.468h-2.411c.01-.627.307-1.093.89-1.4.584-.306 1.475-.458 2.67-.458 1.148 0 2.003.178 2.564.536.562.357.843.901.843 1.63v2.882c0 .18.008.323.024.433.017.11.045.213.086.308h-2.423a2.304 2.304 0 0 1-.104-.41 2.697 2.697 0 0 1-.033-.425z" fill="#000" mask="url(#h)"/></g></svg>